<svg width="23" height="19" viewBox="0 0 23 19" fill="none" xmlns="http://www.w3.org/2000/svg">
<path d="M21.2308 2.71429H11.7941L8.72673 0.361905C8.42109 0.127452 8.04946 0.000488849 7.6674 0H1.76923C1.3 0 0.849991 0.190646 0.518196 0.529997C0.1864 0.869349 0 1.32961 0 1.80952V17.1905C0 17.6704 0.1864 18.1307 0.518196 18.47C0.849991 18.8094 1.3 19 1.76923 19H21.2308C21.7 19 22.15 18.8094 22.4818 18.47C22.8136 18.1307 23 17.6704 23 17.1905V4.52381C23 4.04389 22.8136 3.58363 22.4818 3.24428C22.15 2.90493 21.7 2.71429 21.2308 2.71429ZM1.76923 5.42857V1.80952H7.6674L10.026 3.61905L7.6663 5.42857H1.76923ZM14.1538 12.6667H12.3846V14.4762C12.3846 14.7161 12.2914 14.9463 12.1255 15.116C11.9596 15.2856 11.7346 15.381 11.5 15.381C11.2654 15.381 11.0404 15.2856 10.8745 15.116C10.7086 14.9463 10.6154 14.7161 10.6154 14.4762V12.6667H8.84615C8.61154 12.6667 8.38653 12.5713 8.22064 12.4017C8.05474 12.232 7.96154 12.0019 7.96154 11.7619C7.96154 11.5219 8.05474 11.2918 8.22064 11.1221C8.38653 10.9525 8.61154 10.8571 8.84615 10.8571H10.6154V9.04762C10.6154 8.80766 10.7086 8.57753 10.8745 8.40786C11.0404 8.23818 11.2654 8.14286 11.5 8.14286C11.7346 8.14286 11.9596 8.23818 12.1255 8.40786C12.2914 8.57753 12.3846 8.80766 12.3846 9.04762V10.8571H14.1538C14.3885 10.8571 14.6135 10.9525 14.7794 11.1221C14.9453 11.2918 15.0385 11.5219 15.0385 11.7619C15.0385 12.0019 14.9453 12.232 14.7794 12.4017C14.6135 12.5713 14.3885 12.6667 14.1538 12.6667Z" fill="#FF8A00"/>
</svg>
