<svg width="18" height="15" viewBox="0 0 18 15" fill="none" xmlns="http://www.w3.org/2000/svg">
<path d="M17.9267 9.53112C17.9244 10.9809 17.3426 12.3706 16.3089 13.3957C15.2752 14.4208 13.8739 14.9977 12.412 15H4.82925C4.64642 15 4.47109 14.928 4.34181 14.7998C4.21253 14.6716 4.13991 14.4977 4.13991 14.3164C4.13991 14.1351 4.21253 13.9612 4.34181 13.833C4.47109 13.7048 4.64642 13.6328 4.82925 13.6328H12.412C13.5089 13.6328 14.5609 13.2006 15.3366 12.4314C16.1122 11.6622 16.548 10.6189 16.548 9.53112C16.548 8.44329 16.1122 7.40002 15.3366 6.63081C14.5609 5.8616 13.5089 5.42946 12.412 5.42946H2.35624L5.3204 8.36044C5.44984 8.49005 5.52246 8.66509 5.52246 8.84751C5.52246 9.02993 5.44984 9.20498 5.3204 9.33458C5.18864 9.46093 5.01253 9.53156 4.82925 9.53156C4.64596 9.53156 4.46985 9.46093 4.33809 9.33458L0.202062 5.23293C0.0726173 5.10332 0 4.92827 0 4.74585C0 4.56343 0.0726173 4.38839 0.202062 4.25878L4.33809 0.157124C4.47203 0.0481136 4.64206 -0.00759506 4.81512 0.0008339C4.98818 0.00926286 5.15189 0.0812268 5.27441 0.202728C5.39693 0.324229 5.4695 0.48658 5.478 0.658202C5.4865 0.829824 5.43032 0.998446 5.3204 1.13127L2.35624 4.06224H12.412C13.8739 4.0645 15.2752 4.64141 16.3089 5.66654C17.3426 6.69166 17.9244 8.08138 17.9267 9.53112Z" fill="black" fill-opacity="0.5"/>
</svg>
