<svg width="47" height="47" viewBox="0 0 47 47" fill="none" xmlns="http://www.w3.org/2000/svg">
<circle cx="23.5" cy="23.5" r="23.5" fill="black" fill-opacity="0.25"/>
<path d="M26.3229 17.9896C26.2266 17.893 26.1121 17.8164 25.9861 17.7641C25.8601 17.7118 25.725 17.6849 25.5886 17.6849C25.4521 17.6849 25.3171 17.7118 25.191 17.7641C25.065 17.8164 24.9506 17.893 24.8542 17.9896L20.0729 22.7708C19.9764 22.8672 19.8998 22.9817 19.8475 23.1077C19.7952 23.2337 19.7683 23.3688 19.7683 23.5052C19.7683 23.6416 19.7952 23.7767 19.8475 23.9027C19.8998 24.0287 19.9764 24.1432 20.0729 24.2396L24.8542 29.0208C24.9506 29.1173 25.0651 29.1938 25.1911 29.2459C25.3171 29.2981 25.4522 29.325 25.5886 29.325C25.725 29.325 25.86 29.2981 25.986 29.2459C26.112 29.1938 26.2265 29.1173 26.3229 29.0208C26.4194 28.9244 26.4959 28.8099 26.5481 28.6839C26.6003 28.5579 26.6271 28.4228 26.6271 28.2864C26.6271 28.1501 26.6003 28.015 26.5481 27.889C26.4959 27.763 26.4194 27.6485 26.3229 27.5521L22.2813 23.5L26.3229 19.4583C26.7292 19.0521 26.7188 18.3854 26.3229 17.9896Z" fill="black"/>
</svg>
