<svg width="47" height="47" viewBox="0 0 47 47" fill="none" xmlns="http://www.w3.org/2000/svg">
<circle cx="23.5" cy="23.5" r="23.5" fill="#FF8A00"/>
<path d="M20.6771 17.9896C20.5805 18.086 20.5039 18.2004 20.4516 18.3264C20.3993 18.4525 20.3724 18.5875 20.3724 18.724C20.3724 18.8604 20.3993 18.9955 20.4516 19.1215C20.5039 19.2475 20.5805 19.362 20.6771 19.4583L24.7187 23.5L20.6771 27.5417C20.5806 27.6381 20.5041 27.7526 20.4519 27.8786C20.3997 28.0046 20.3729 28.1397 20.3729 28.2761C20.3729 28.4124 20.3997 28.5475 20.4519 28.6735C20.5041 28.7995 20.5806 28.914 20.6771 29.0104C20.7735 29.1069 20.888 29.1834 21.014 29.2356C21.14 29.2878 21.2751 29.3146 21.4114 29.3146C21.5478 29.3146 21.6829 29.2878 21.8089 29.2356C21.9349 29.1834 22.0494 29.1069 22.1458 29.0104L26.9271 24.2292C27.0236 24.1328 27.1002 24.0183 27.1525 23.8923C27.2048 23.7663 27.2317 23.6312 27.2317 23.4948C27.2317 23.3584 27.2048 23.2233 27.1525 23.0973C27.1002 22.9713 27.0236 22.8568 26.9271 22.7604L22.1458 17.9792C21.75 17.5833 21.0833 17.5833 20.6771 17.9896Z" fill="white" fill-opacity="0.97"/>
</svg>
