<svg width="142" height="142" viewBox="0 0 142 142" fill="none" xmlns="http://www.w3.org/2000/svg">
<g clip-path="url(#clip0_187_421)">
<path d="M66.8652 72.5913L68.8294 74.5555L44.2771 99.1078L42.3129 97.1436L66.8652 72.5913Z" stroke="black" stroke-width="2" stroke-linecap="round" stroke-linejoin="round"/>
<path d="M73.7334 39.8926L73.7334 59.338M82.0674 67.6701L101.511 67.6701M73.7334 95.4476L73.7334 76.0041M65.4003 67.6711L45.9559 67.6701" stroke="black" stroke-width="2" stroke-linecap="round" stroke-linejoin="round"/>
<path d="M67.8408 61.7776L59.002 52.9387M88.4647 52.9387L79.6259 61.7776M88.4647 82.4015L79.6259 73.5627M60.5556 35.8601L64.3269 44.9661M41.9135 54.5042L51.0205 58.2744M41.9185 80.8685L51.0234 77.0943M60.5654 99.5056L64.3347 90.3977M86.9317 99.4948L83.1546 90.3908M105.563 80.8439L96.456 77.0776M105.547 54.4787L96.4442 58.2568M86.8836 35.8621L83.1231 44.973" stroke="black" stroke-width="2" stroke-miterlimit="10" stroke-linecap="round"/>
<path d="M72.3651 69.056L72.8414 71.9188L74.178 69.3427L77.0467 69.7758L75.0108 67.7085L76.3082 65.1129L73.7125 66.4102L71.6452 64.3743L72.0783 67.243L69.5023 68.5797L72.3651 69.056Z" fill="black" stroke="black" stroke-width="2" stroke-linejoin="round"/>
<path d="M66.8652 72.5913L68.8294 74.5555L44.2771 99.1078L42.3129 97.1436L66.8652 72.5913Z" stroke="#D22F27" stroke-width="2" stroke-linecap="round" stroke-linejoin="round"/>
<path d="M73.7334 39.8926L73.7334 59.338" stroke="#E27022" stroke-width="2" stroke-linecap="round" stroke-linejoin="round"/>
<path d="M82.0673 67.6702L101.511 67.6702" stroke="#61B2E4" stroke-width="2" stroke-linecap="round" stroke-linejoin="round"/>
<path d="M73.7334 95.4476L73.7334 76.0042" stroke="#F1B31C" stroke-width="2" stroke-linecap="round" stroke-linejoin="round"/>
<path d="M65.4005 67.6712L45.956 67.6702" stroke="#E67A94" stroke-width="2" stroke-linecap="round" stroke-linejoin="round"/>
<path d="M67.8408 61.7776L59.002 52.9387" stroke="#D0CFCE" stroke-width="2" stroke-miterlimit="10" stroke-linecap="round"/>
<path d="M88.4648 52.9387L79.626 61.7776" stroke="#8967AA" stroke-width="2" stroke-miterlimit="10" stroke-linecap="round"/>
<path d="M88.4648 82.4016L79.626 73.5627" stroke="#EA5A47" stroke-width="2" stroke-miterlimit="10" stroke-linecap="round"/>
<path d="M60.5557 35.8601L64.3269 44.9661" stroke="#B399C8" stroke-width="2" stroke-miterlimit="10" stroke-linecap="round"/>
<path d="M41.9137 54.5043L51.0206 58.2745" stroke="#92D3F5" stroke-width="2" stroke-miterlimit="10" stroke-linecap="round"/>
<path d="M41.9188 80.8685L51.0238 77.0944" stroke="#B1CC33" stroke-width="2" stroke-miterlimit="10" stroke-linecap="round"/>
<path d="M60.5657 99.5056L64.335 90.3977" stroke="#FFA7C0" stroke-width="2" stroke-miterlimit="10" stroke-linecap="round"/>
<path d="M86.9314 99.4949L83.1543 90.3909" stroke="#B399C8" stroke-width="2" stroke-miterlimit="10" stroke-linecap="round"/>
<path d="M105.563 80.8439L96.4557 77.0775" stroke="#B1CC33" stroke-width="2" stroke-miterlimit="10" stroke-linecap="round"/>
<path d="M105.547 54.4786L96.4442 58.2567" stroke="#A57939" stroke-width="2" stroke-miterlimit="10" stroke-linecap="round"/>
<path d="M86.8838 35.8621L83.1234 44.9729" stroke="#FCEA2B" stroke-width="2" stroke-miterlimit="10" stroke-linecap="round"/>
<path d="M72.3651 69.056L72.8414 71.9188L74.178 69.3427L77.0467 69.7758L75.0108 67.7085L76.3082 65.1129L73.7125 66.4102L71.6452 64.3743L72.0783 67.243L69.5023 68.5797L72.3651 69.056Z" fill="#D22F27" stroke="#D22F27" stroke-width="2" stroke-linejoin="round"/>
<path d="M47.2244 92.2332L66.8662 72.5913L68.8304 74.5555" stroke="black" stroke-width="2" stroke-linecap="round" stroke-linejoin="round"/>
</g>
<defs>
<clipPath id="clip0_187_421">
<rect width="100" height="100" fill="white" transform="translate(70.7109) rotate(45)"/>
</clipPath>
</defs>
</svg>
