<svg width="142" height="142" viewBox="0 0 142 142" fill="none" xmlns="http://www.w3.org/2000/svg">
<g clip-path="url(#clip0_187_446)">
<path d="M72.5918 74.5557L74.556 72.5915L99.1083 97.1438L97.1441 99.108L72.5918 74.5557Z" stroke="black" stroke-width="2" stroke-linecap="round" stroke-linejoin="round"/>
<path d="M39.8926 67.6877L59.338 67.6877M67.6701 59.3537L67.6701 39.9102M95.4476 67.6877L76.0041 67.6877M67.6711 76.0208L67.6701 95.4653" stroke="black" stroke-width="2" stroke-linecap="round" stroke-linejoin="round"/>
<path d="M61.7778 73.5804L52.939 82.4192M52.939 52.9564L61.7778 61.7952M82.4018 52.9564L73.5629 61.7952M35.8604 80.8655L44.9664 77.0943M54.5044 99.5076L58.2747 90.4007M80.8687 99.5027L77.0945 90.3977M99.5059 80.8557L90.398 77.0864M99.4951 54.4895L90.3911 58.2666M80.8442 35.8582L77.0778 44.9651M54.4789 35.8739L58.257 44.9769M35.8624 54.5376L44.9732 58.298" stroke="black" stroke-width="2" stroke-miterlimit="10" stroke-linecap="round"/>
<path d="M69.056 69.0558L71.9188 68.5795L69.3427 67.2429L69.7758 64.3742L67.7085 66.4101L65.1129 65.1127L66.4102 67.7084L64.3743 69.7757L67.243 69.3426L68.5797 71.9186L69.056 69.0558Z" fill="black" stroke="black" stroke-width="2" stroke-linejoin="round"/>
<path d="M72.5918 74.5557L74.556 72.5915L99.1083 97.1438L97.1441 99.108L72.5918 74.5557Z" stroke="#D22F27" stroke-width="2" stroke-linecap="round" stroke-linejoin="round"/>
<path d="M39.8926 67.6877L59.338 67.6877" stroke="#E27022" stroke-width="2" stroke-linecap="round" stroke-linejoin="round"/>
<path d="M67.67 59.3538L67.67 39.9103" stroke="#61B2E4" stroke-width="2" stroke-linecap="round" stroke-linejoin="round"/>
<path d="M95.4484 67.6877L76.0049 67.6877" stroke="#F1B31C" stroke-width="2" stroke-linecap="round" stroke-linejoin="round"/>
<path d="M67.671 76.0209L67.67 95.4654" stroke="#E67A94" stroke-width="2" stroke-linecap="round" stroke-linejoin="round"/>
<path d="M61.7783 73.5804L52.9395 82.4192" stroke="#D0CFCE" stroke-width="2" stroke-miterlimit="10" stroke-linecap="round"/>
<path d="M52.9395 52.9563L61.7783 61.7951" stroke="#8967AA" stroke-width="2" stroke-miterlimit="10" stroke-linecap="round"/>
<path d="M82.4013 52.9563L73.5625 61.7952" stroke="#EA5A47" stroke-width="2" stroke-miterlimit="10" stroke-linecap="round"/>
<path d="M35.8604 80.8655L44.9663 77.0942" stroke="#B399C8" stroke-width="2" stroke-miterlimit="10" stroke-linecap="round"/>
<path d="M54.5043 99.5077L58.2745 90.4008" stroke="#92D3F5" stroke-width="2" stroke-miterlimit="10" stroke-linecap="round"/>
<path d="M80.8683 99.5026L77.0941 90.3976" stroke="#B1CC33" stroke-width="2" stroke-miterlimit="10" stroke-linecap="round"/>
<path d="M99.5064 80.8557L90.3984 77.0864" stroke="#FFA7C0" stroke-width="2" stroke-miterlimit="10" stroke-linecap="round"/>
<path d="M99.4946 54.4895L90.3906 58.2666" stroke="#B399C8" stroke-width="2" stroke-miterlimit="10" stroke-linecap="round"/>
<path d="M80.8439 35.8583L77.0775 44.9652" stroke="#B1CC33" stroke-width="2" stroke-miterlimit="10" stroke-linecap="round"/>
<path d="M54.4789 35.8739L58.257 44.9769" stroke="#A57939" stroke-width="2" stroke-miterlimit="10" stroke-linecap="round"/>
<path d="M35.8623 54.5376L44.9732 58.298" stroke="#FCEA2B" stroke-width="2" stroke-miterlimit="10" stroke-linecap="round"/>
<path d="M69.056 69.0558L71.9188 68.5795L69.3427 67.2429L69.7758 64.3742L67.7085 66.4101L65.1129 65.1127L66.4102 67.7084L64.3743 69.7757L67.243 69.3426L68.5797 71.9186L69.056 69.0558Z" fill="#D22F27" stroke="#D22F27" stroke-width="2" stroke-linejoin="round"/>
<path d="M92.2337 94.1975L72.5918 74.5557L74.556 72.5915" stroke="black" stroke-width="2" stroke-linecap="round" stroke-linejoin="round"/>
</g>
<defs>
<clipPath id="clip0_187_446">
<rect width="100" height="100" fill="white" transform="translate(0 70.7107) rotate(-45)"/>
</clipPath>
</defs>
</svg>
