<svg width="17" height="18" viewBox="0 0 17 18" fill="none" xmlns="http://www.w3.org/2000/svg">
<path d="M8.32497 0.508505C3.72497 0.508505 -3.05176e-05 4.24518 -3.05176e-05 8.8493C-3.05176e-05 13.4534 3.72497 17.1901 8.32497 17.1901C12.9333 17.1901 16.6666 13.4534 16.6666 8.8493C16.6666 4.24518 12.9333 0.508505 8.32497 0.508505ZM8.3333 15.5219C4.64997 15.5219 1.66664 12.5359 1.66664 8.8493C1.66664 5.16267 4.64997 2.17666 8.3333 2.17666C12.0166 2.17666 15 5.16267 15 8.8493C15 12.5359 12.0166 15.5219 8.3333 15.5219ZM8.74997 4.6789H7.49997V9.68338L11.875 12.3107L12.5 11.2848L8.74997 9.05782V4.6789Z" fill="#FF8A00"/>
</svg>
