<svg width="17" height="18" viewBox="0 0 17 18" fill="none" xmlns="http://www.w3.org/2000/svg">
<path d="M8.325 0.508505C3.725 0.508505 0 4.24518 0 8.8493C0 13.4534 3.725 17.1901 8.325 17.1901C12.9333 17.1901 16.6667 13.4534 16.6667 8.8493C16.6667 4.24518 12.9333 0.508505 8.325 0.508505ZM8.33333 15.5219C4.65 15.5219 1.66667 12.5359 1.66667 8.8493C1.66667 5.16267 4.65 2.17666 8.33333 2.17666C12.0167 2.17666 15 5.16267 15 8.8493C15 12.5359 12.0167 15.5219 8.33333 15.5219ZM8.75 4.6789H7.5V9.68338L11.875 12.3107L12.5 11.2848L8.75 9.05782V4.6789Z" fill="#FF8A00"/>
</svg>
