<svg width="18" height="19" viewBox="0 0 18 19" fill="none" xmlns="http://www.w3.org/2000/svg">
<path d="M2 18.5228C1.45 18.5228 0.979 18.3466 0.587 17.9941C0.195667 17.6409 0 17.2167 0 16.7212V4.10994C0 3.61449 0.195667 3.19051 0.587 2.838C0.979 2.48488 1.45 2.30833 2 2.30833H3V0.506714H5V2.30833H13V0.506714H15V2.30833H16C16.55 2.30833 17.021 2.48488 17.413 2.838C17.8043 3.19051 18 3.61449 18 4.10994V16.7212C18 17.2167 17.8043 17.6409 17.413 17.9941C17.021 18.3466 16.55 18.5228 16 18.5228H2ZM2 16.7212H16V7.71316H2V16.7212ZM2 5.91155H16V4.10994H2V5.91155ZM9 11.3164C8.71667 11.3164 8.47933 11.2299 8.288 11.057C8.096 10.8846 8 10.6708 8 10.4156C8 10.1603 8.096 9.94626 8.288 9.7733C8.47933 9.60095 8.71667 9.51477 9 9.51477C9.28333 9.51477 9.521 9.60095 9.713 9.7733C9.90433 9.94626 10 10.1603 10 10.4156C10 10.6708 9.90433 10.8846 9.713 11.057C9.521 11.2299 9.28333 11.3164 9 11.3164ZM5 11.3164C4.71667 11.3164 4.479 11.2299 4.287 11.057C4.09567 10.8846 4 10.6708 4 10.4156C4 10.1603 4.09567 9.94626 4.287 9.7733C4.479 9.60095 4.71667 9.51477 5 9.51477C5.28333 9.51477 5.521 9.60095 5.713 9.7733C5.90433 9.94626 6 10.1603 6 10.4156C6 10.6708 5.90433 10.8846 5.713 11.057C5.521 11.2299 5.28333 11.3164 5 11.3164ZM13 11.3164C12.7167 11.3164 12.4793 11.2299 12.288 11.057C12.096 10.8846 12 10.6708 12 10.4156C12 10.1603 12.096 9.94626 12.288 9.7733C12.4793 9.60095 12.7167 9.51477 13 9.51477C13.2833 9.51477 13.5207 9.60095 13.712 9.7733C13.904 9.94626 14 10.1603 14 10.4156C14 10.6708 13.904 10.8846 13.712 11.057C13.5207 11.2299 13.2833 11.3164 13 11.3164ZM9 14.9196C8.71667 14.9196 8.47933 14.8331 8.288 14.6602C8.096 14.4878 8 14.274 8 14.0188C8 13.7636 8.096 13.5498 8.288 13.3774C8.47933 13.2045 8.71667 13.118 9 13.118C9.28333 13.118 9.521 13.2045 9.713 13.3774C9.90433 13.5498 10 13.7636 10 14.0188C10 14.274 9.90433 14.4878 9.713 14.6602C9.521 14.8331 9.28333 14.9196 9 14.9196ZM5 14.9196C4.71667 14.9196 4.479 14.8331 4.287 14.6602C4.09567 14.4878 4 14.274 4 14.0188C4 13.7636 4.09567 13.5498 4.287 13.3774C4.479 13.2045 4.71667 13.118 5 13.118C5.28333 13.118 5.521 13.2045 5.713 13.3774C5.90433 13.5498 6 13.7636 6 14.0188C6 14.274 5.90433 14.4878 5.713 14.6602C5.521 14.8331 5.28333 14.9196 5 14.9196ZM13 14.9196C12.7167 14.9196 12.4793 14.8331 12.288 14.6602C12.096 14.4878 12 14.274 12 14.0188C12 13.7636 12.096 13.5498 12.288 13.3774C12.4793 13.2045 12.7167 13.118 13 13.118C13.2833 13.118 13.5207 13.2045 13.712 13.3774C13.904 13.5498 14 13.7636 14 14.0188C14 14.274 13.904 14.4878 13.712 14.6602C13.5207 14.8331 13.2833 14.9196 13 14.9196Z" fill="#FF8A00"/>
</svg>
