<svg width="24" height="24" viewBox="0 0 24 24" fill="none" xmlns="http://www.w3.org/2000/svg">
<path d="M19.1119 9.75C18.9844 9.75 18.435 9.75375 18.2367 9.76453L15.5288 9.83578L9.28406 2.25H6.33984L9.83625 9.96609L5.27485 10.0336L3.19922 7.5H0.756564L1.72266 11.9147C1.72969 11.94 1.73813 11.9648 1.7475 11.9892C1.74819 11.9915 1.74819 11.994 1.7475 11.9963C1.73789 12.0205 1.7296 12.0452 1.72266 12.0703L0.743439 16.5H3.17063L5.3011 13.9219L9.83719 14.0236L6.33938 21.75H9.2925L15.5269 14.168L18.2348 14.2402C18.4359 14.2509 18.9848 14.2547 19.1095 14.2547C20.2509 14.2547 21.1847 14.0981 21.885 13.7887C23.0728 13.2656 23.25 12.4434 23.25 12C23.25 10.5909 21.7031 9.75 19.1119 9.75Z" fill="#FF8A00"/>
</svg>
