<svg width="31" height="31" viewBox="0 0 31 31" fill="none" xmlns="http://www.w3.org/2000/svg">
<path d="M14.3004 25.1326L14.299 25.1313C10.9533 22.0974 8.25683 19.6467 6.3851 17.3568C4.52437 15.0804 3.5835 13.0852 3.5835 10.9792C3.5835 7.54139 6.26042 4.875 9.68766 4.875C11.6329 4.875 13.5164 5.78571 14.7413 7.21295L15.5002 8.0971L16.259 7.21295C17.484 5.78571 19.3675 4.875 21.3127 4.875C24.7399 4.875 27.4168 7.54139 27.4168 10.9792C27.4168 13.0852 26.476 15.0804 24.6152 17.3568C22.7435 19.6467 20.047 22.0974 16.7013 25.1313L16.6999 25.1326L15.5002 26.2248L14.3004 25.1326Z" fill="white" stroke="#FF8A00" stroke-width="2"/>
</svg>
