<svg width="22" height="22" viewBox="0 0 22 22" fill="none" xmlns="http://www.w3.org/2000/svg">
<path d="M16.5 19.5556H18.7V9.77778H12.1V19.5556H14.3V12.2222H16.5V19.5556ZM1.1 19.5556V1.22222C1.1 0.898069 1.21589 0.587192 1.42218 0.357981C1.62847 0.128769 1.90826 0 2.2 0H17.6C17.8917 0 18.1715 0.128769 18.3778 0.357981C18.5841 0.587192 18.7 0.898069 18.7 1.22222V7.33333H20.9V19.5556H22V22H0V19.5556H1.1ZM5.5 9.77778V12.2222H7.7V9.77778H5.5ZM5.5 14.6667V17.1111H7.7V14.6667H5.5ZM5.5 4.88889V7.33333H7.7V4.88889H5.5Z" fill="#FF8A00"/>
</svg>
