<svg width="18" height="19" viewBox="0 0 18 19" fill="none" xmlns="http://www.w3.org/2000/svg">
<path d="M2 18.0161C1.45 18.0161 0.979 17.8399 0.587 17.4873C0.195667 17.1342 0 16.7099 0 16.2145V3.60322C0 3.10778 0.195667 2.6838 0.587 2.33129C0.979 1.97817 1.45 1.80161 2 1.80161H3V0H5V1.80161H13V0H15V1.80161H16C16.55 1.80161 17.021 1.97817 17.413 2.33129C17.8043 2.6838 18 3.10778 18 3.60322V16.2145C18 16.7099 17.8043 17.1342 17.413 17.4873C17.021 17.8399 16.55 18.0161 16 18.0161H2ZM2 16.2145H16V7.20645H2V16.2145ZM2 5.40483H16V3.60322H2V5.40483ZM9 10.8097C8.71667 10.8097 8.47933 10.7232 8.288 10.5502C8.096 10.3779 8 10.1641 8 9.90886C8 9.65364 8.096 9.43954 8.288 9.26659C8.47933 9.09423 8.71667 9.00806 9 9.00806C9.28333 9.00806 9.521 9.09423 9.713 9.26659C9.90433 9.43954 10 9.65364 10 9.90886C10 10.1641 9.90433 10.3779 9.713 10.5502C9.521 10.7232 9.28333 10.8097 9 10.8097ZM5 10.8097C4.71667 10.8097 4.479 10.7232 4.287 10.5502C4.09567 10.3779 4 10.1641 4 9.90886C4 9.65364 4.09567 9.43954 4.287 9.26659C4.479 9.09423 4.71667 9.00806 5 9.00806C5.28333 9.00806 5.521 9.09423 5.713 9.26659C5.90433 9.43954 6 9.65364 6 9.90886C6 10.1641 5.90433 10.3779 5.713 10.5502C5.521 10.7232 5.28333 10.8097 5 10.8097ZM13 10.8097C12.7167 10.8097 12.4793 10.7232 12.288 10.5502C12.096 10.3779 12 10.1641 12 9.90886C12 9.65364 12.096 9.43954 12.288 9.26659C12.4793 9.09423 12.7167 9.00806 13 9.00806C13.2833 9.00806 13.5207 9.09423 13.712 9.26659C13.904 9.43954 14 9.65364 14 9.90886C14 10.1641 13.904 10.3779 13.712 10.5502C13.5207 10.7232 13.2833 10.8097 13 10.8097ZM9 14.4129C8.71667 14.4129 8.47933 14.3264 8.288 14.1535C8.096 13.9811 8 13.7673 8 13.5121C8 13.2569 8.096 13.0431 8.288 12.8707C8.47933 12.6978 8.71667 12.6113 9 12.6113C9.28333 12.6113 9.521 12.6978 9.713 12.8707C9.90433 13.0431 10 13.2569 10 13.5121C10 13.7673 9.90433 13.9811 9.713 14.1535C9.521 14.3264 9.28333 14.4129 9 14.4129ZM5 14.4129C4.71667 14.4129 4.479 14.3264 4.287 14.1535C4.09567 13.9811 4 13.7673 4 13.5121C4 13.2569 4.09567 13.0431 4.287 12.8707C4.479 12.6978 4.71667 12.6113 5 12.6113C5.28333 12.6113 5.521 12.6978 5.713 12.8707C5.90433 13.0431 6 13.2569 6 13.5121C6 13.7673 5.90433 13.9811 5.713 14.1535C5.521 14.3264 5.28333 14.4129 5 14.4129ZM13 14.4129C12.7167 14.4129 12.4793 14.3264 12.288 14.1535C12.096 13.9811 12 13.7673 12 13.5121C12 13.2569 12.096 13.0431 12.288 12.8707C12.4793 12.6978 12.7167 12.6113 13 12.6113C13.2833 12.6113 13.5207 12.6978 13.712 12.8707C13.904 13.0431 14 13.2569 14 13.5121C14 13.7673 13.904 13.9811 13.712 14.1535C13.5207 14.3264 13.2833 14.4129 13 14.4129Z" fill="#FF8A00"/>
</svg>
