<svg width="80" height="83" viewBox="0 0 80 83" fill="none" xmlns="http://www.w3.org/2000/svg">
<circle cx="40" cy="40" r="39" fill="white" stroke="#1E1E1E" stroke-width="2"/>
<path d="M61.1109 70.7778V66.3333C61.1109 60.7778 55.5553 56.3333 49.9998 56.3333C43.3331 61.8889 36.6664 61.8889 29.9998 56.3333C24.4442 56.3333 18.8887 60.7778 18.8887 66.3333V70.7778H61.1109Z" fill="#FF8A00"/>
<path d="M46.8888 25.2222C48.2222 25.3333 50.4444 26.8889 52.4444 34.8889V35.3333C51.9105 37.5621 51.1278 39.7238 50.1111 41.7778C50.1111 41.7778 47.9999 45.1111 47.1111 40.4444C42.3509 39.1108 37.3157 39.1108 32.5555 40.4444C31.6666 45.1111 29.5555 41.7778 29.5555 41.7778C28.5387 39.7238 27.756 37.5621 27.2222 35.3333V34.8889C30.3333 22.5555 34.1111 25.3333 34.1111 25.3333C38.9999 27.4444 39.4444 27.7778 45.8888 25.3333C45.8888 25.3333 46.4444 25.1111 47.2222 24.7778L46.8888 25.2222Z" fill="#FADCBC"/>
<path d="M34 42.1111H46.2222V50.5556H34V42.1111Z" fill="#FADCBC"/>
<path d="M52.3334 35.2222V34.7778C50.3334 26.7778 48.1111 25.2222 46.7778 25.1111V24.7778C46.3889 24.9745 45.9789 25.1233 45.5556 25.2222C39.1111 27.6667 38.7778 27.3333 33.7778 25.2222C33.7778 25.2222 30 22.4445 26.8889 34.7778V35.2222C26.2217 32.7571 26.0747 30.1801 26.4572 27.6551C26.8398 25.1301 27.7436 22.7124 29.1111 20.5556C32.6667 15.1111 43.4445 17.8889 43.4445 17.8889L46.8889 15.2222L48.1111 18.6667L52.1111 16C52.5047 17.0022 52.588 18.0995 52.3503 19.1495C52.1125 20.1996 51.5647 21.154 50.7778 21.8889L50.8889 22C52.8705 26.1119 53.3804 30.7795 52.3334 35.2222ZM50.4445 47.7778C49.858 48.9129 49.0669 49.9299 48.1111 50.7778C45.8364 52.7385 42.8867 53.735 39.8889 53.5556H39.5556C36.5578 53.735 33.6081 52.7385 31.3334 50.7778C30.41 49.9 29.6234 48.8889 29 47.7778C27.3622 44.7523 26.6294 41.3195 26.8889 37.8889C27 36.7778 27 35.6667 27 35.2222C27.5339 37.451 28.3166 39.6127 29.3334 41.6667C29.3334 41.6667 31.5556 45 32.3334 40.3333C37.0934 39 42.1289 39 46.8889 40.3333C47.7778 45 49.8889 41.6667 49.8889 41.6667C50.9057 39.6127 51.6884 37.451 52.2223 35.2222C52.4323 36.0956 52.5445 36.99 52.5556 37.8889C52.8151 41.3195 52.0823 44.7523 50.4445 47.7778ZM44.4445 44.2222C44.4439 43.9277 44.3266 43.6455 44.1184 43.4372C43.9101 43.229 43.6279 43.1117 43.3334 43.1111L39.8889 44.7778L36.5556 43.1111C36.4074 43.1022 36.2589 43.1248 36.1201 43.1775C35.9812 43.2302 35.8551 43.3118 35.7501 43.4168C35.6451 43.5218 35.5636 43.6479 35.5109 43.7867C35.4582 43.9256 35.4356 44.074 35.4445 44.2222V46.3333C35.4445 47.1111 37.2223 48.5556 39.8889 48.5556C42.5556 48.5556 44.3334 47.1111 44.3334 46.3333V44.2222H44.4445Z" fill="#A57939"/>
<path d="M61.1109 69.6667V66.3333C61.1109 60.7778 55.5553 56.3333 49.9998 56.3333C43.3331 61.8889 36.6664 61.8889 29.9998 56.3333C24.4442 56.3333 18.8887 60.7778 18.8887 66.3333V69.6667" stroke="black" stroke-width="2" stroke-linecap="round" stroke-linejoin="round"/>
<path d="M44.4446 32.6667C45.034 32.6667 45.5992 32.9008 46.016 33.3175C46.4327 33.7343 46.6668 34.2995 46.6668 34.8889C46.6668 35.4782 46.4327 36.0435 46.016 36.4602C45.5992 36.877 45.034 37.1111 44.4446 37.1111C43.8552 37.1111 43.29 36.877 42.8733 36.4602C42.4565 36.0435 42.2224 35.4782 42.2224 34.8889C42.2224 34.2995 42.4565 33.7343 42.8733 33.3175C43.29 32.9008 43.8552 32.6667 44.4446 32.6667ZM44.3335 43.5555C44.4492 43.821 44.4558 44.1214 44.3519 44.3917C44.2479 44.662 44.0417 44.8805 43.7779 45C42.5777 45.6204 41.2397 45.9262 39.8891 45.8889C38.58 45.8717 37.2906 45.5683 36.1113 45C35.8475 44.8805 35.6413 44.662 35.5374 44.3917C35.4334 44.1214 35.44 43.821 35.5557 43.5555C35.611 43.4222 35.695 43.3027 35.8018 43.2056C35.9086 43.1085 36.0355 43.0361 36.1734 42.9937C36.3114 42.9513 36.457 42.9398 36.5999 42.9601C36.7428 42.9804 36.8795 43.0319 37.0002 43.1111C38.7557 44.1111 40.9113 44.1111 42.6668 43.1111C42.9471 42.9506 43.2795 42.9072 43.5916 42.9905C43.9037 43.0737 44.1703 43.2768 44.3335 43.5555ZM35.5557 32.6667C36.1451 32.6667 36.7103 32.9008 37.1271 33.3175C37.5438 33.7343 37.7779 34.2995 37.7779 34.8889C37.7779 35.4782 37.5438 36.0435 37.1271 36.4602C36.7103 36.877 36.1451 37.1111 35.5557 37.1111C34.9663 37.1111 34.4011 36.877 33.9844 36.4602C33.5676 36.0435 33.3335 35.4782 33.3335 34.8889C33.3335 34.2995 33.5676 33.7343 33.9844 33.3175C34.4011 32.9008 34.9663 32.6667 35.5557 32.6667Z" fill="black"/>
<path d="M27.0001 35.2222C27.0001 35.6667 27.0001 36.7778 26.889 37.8889C26.6295 41.3195 27.3623 44.7523 29.0001 47.7778C29.6234 48.8889 30.4101 49.9 31.3334 50.7778C33.6157 52.7253 36.5599 53.7199 39.5557 53.5556" stroke="black" stroke-width="2" stroke-linecap="round" stroke-linejoin="round"/>
<path d="M52.4444 34.8889V35.3333C51.9106 37.5621 51.1279 39.7238 50.1111 41.7778C50.1111 41.7778 48 45.1111 47.1111 40.4444C42.3509 39.1108 37.3158 39.1108 32.5556 40.4444C31.6667 45.1111 29.5556 41.7778 29.5556 41.7778C28.5388 39.7238 27.7561 37.5621 27.2222 35.3333C27.2222 35.2222 27 33.8889 27 33.6667" stroke="black" stroke-width="2" stroke-linecap="round" stroke-linejoin="round"/>
<path d="M52.4442 35.2222C52.4442 35.6667 52.5553 36.7778 52.5553 37.8889C52.8149 41.3195 52.082 44.7523 50.4442 47.7778C49.8577 48.9129 49.0667 49.9299 48.1109 50.7778C45.8361 52.7385 42.8865 53.735 39.8887 53.5556H39.5553M46.6664 25.1111H46.8887C48.222 25.2222 50.4442 26.7778 52.4442 34.7778M26.9998 35.2222C26.3325 32.7571 26.1855 30.1801 26.5681 27.6551C26.9507 25.1301 27.8544 22.7124 29.222 20.5556C32.7775 15.1111 43.5553 17.8889 43.5553 17.8889L46.9998 15.2222L48.222 18.6667L51.9998 15.8889C52.3933 16.891 52.4767 17.9883 52.2389 19.0384C52.0012 20.0885 51.4533 21.0429 50.6664 21.7778C49.547 22.9291 48.2297 23.87 46.7775 24.5556C46.3626 24.8049 45.9134 24.992 45.4442 25.1111C38.9998 27.5556 38.6664 27.2222 33.6664 25.1111C33.6664 25.1111 29.9998 22.3333 26.8887 34.6667L26.9998 35.2222Z" stroke="black" stroke-width="2" stroke-linecap="round" stroke-linejoin="round"/>
<path d="M50.8887 22C52.8742 26.1086 53.422 30.765 52.4442 35.2222" stroke="black" stroke-width="2" stroke-linecap="round" stroke-linejoin="round"/>
<path d="M44.5001 72.5C43.4167 72.5 42.3334 72.5 41.2501 72.5C39.8499 72.5 43.9612 72.5 44.3889 72.5C46.2561 72.5 42.3028 72.5 41.8056 72.5C40.5186 72.5 39.2315 72.5 37.9445 72.5C36.8839 72.5 31.0046 73.3909 30.5278 71.7222C29.734 68.9437 32.4939 70.5 33.7778 70.5C36.7593 70.5 39.7408 70.5 42.7223 70.5C44.2655 70.5 46.5001 69.8156 46.5001 71.75C46.5001 73.9248 36.3465 73 34.7501 73C33.2258 73 30.8245 73.4809 29.6112 72.3889C28.8585 71.7115 26.9623 71.0566 26.0001 71C24.8434 70.932 23.2031 68.253 22.1112 70C21.3063 71.2878 23.2298 71.3412 24.5001 71.5C24.8338 71.5417 27.4883 73.7895 27.2778 74C26.703 74.5748 23.0908 73 25.5001 73C26.4344 73 26.9228 73.3382 27.6112 73.8889C28.1422 74.3137 29.448 73.9071 30.1112 74.1111C31.6536 74.5857 34.0439 74.9397 35.6112 75C39.6626 75.1558 35.7212 75 33.8334 75C33.0278 75 35.4445 75 36.2501 75C37.5839 75 35.134 75 34.7501 75C34.3423 75 32.6 75.6357 33.7778 75.9722C34.4973 76.1778 35.5025 76 36.2501 76C37.9167 76 39.5834 76 41.2501 76C44.5968 76 47.2415 75.0068 49.7501 73C50.284 72.5729 50.8027 72 49.7501 72C49.1019 72 47.1575 72 47.8056 72C49.6204 72 51.4352 72 53.2501 72C55.4301 72 51.4416 73.8362 51.0001 74.2778C50.7799 74.4979 53.7872 74.7029 54.0001 73C54.2459 71.0329 57.0001 73.0414 57.0001 71C57.0001 68.3226 59.3011 71.3212 56.1667 70.8889C56.0441 70.872 52.2223 70.5646 52.2223 70C52.2223 69.6672 53.9692 70.7469 54.1112 70.8889C55.0142 71.7919 58.6809 71.097 57.7778 72C57.6135 72.1643 55.7849 72.0626 55.6112 71.8889C54.9663 71.2441 55.0001 69.2222 55.0001 69.2222C55.0001 69.2222 55.0534 70.8869 55.6112 71.3889C56.2672 71.9793 57.0321 71.064 57.5001 72" stroke="#FF8A00" stroke-width="3" stroke-linecap="round"/>
<path d="M48.9998 75C47.2673 75 49.5087 75.1072 49.9998 74.8889C52.2095 73.9068 49.9396 74.8943 48.9998 75.3889C46.0171 76.9587 48.883 74.5584 49.9998 74" stroke="#FF8A00" stroke-width="3" stroke-linecap="round"/>
<path d="M57.9998 72C57.5902 71.5904 56.0334 69.3348 56.3887 69.6111C56.9899 70.0787 57.8044 70.6523 58.4998 71" stroke="#FF8A00" stroke-width="3" stroke-linecap="round"/>
</svg>
