<svg width="72" height="72" viewBox="0 0 72 72" fill="none" xmlns="http://www.w3.org/2000/svg">
<rect width="72" height="72" rx="15" fill="#FF8A00"/>
<path d="M44.6748 43.1189L51 49.4483L48.9103 51.5398L42.5866 45.209C40.2336 47.0969 37.307 48.1237 34.2913 48.1194C26.9545 48.1194 21 42.1596 21 34.8162C21 27.4728 26.9545 21.513 34.2913 21.513C41.6281 21.513 47.5827 27.4728 47.5827 34.8162C47.5869 37.8346 46.561 40.7638 44.6748 43.1189ZM41.7123 42.0221C43.5866 40.093 44.6333 37.507 44.629 34.8162C44.629 29.0988 40.0022 24.4693 34.2913 24.4693C28.579 24.4693 23.9536 29.0988 23.9536 34.8162C23.9536 40.5322 28.579 45.1632 34.2913 45.1632C36.9798 45.1674 39.5634 44.1198 41.4908 42.2438L41.7123 42.0221Z" fill="white" fill-opacity="0.9"/>
</svg>
