<svg width="616" height="227" viewBox="0 0 616 227" fill="none" xmlns="http://www.w3.org/2000/svg">
<path opacity="0.85" d="M56.668 173C44.6391 160.43 76.8064 124.884 83.358 114.235C89.3085 104.562 127.422 106.872 134.563 111.847C140.02 115.649 138.518 130.772 138.518 136.455C138.518 143.117 140.794 147.787 144.844 153.258C160.601 174.547 185.508 145.671 186.658 129.11C188 109.789 188.268 92.2132 202.178 77.1389C210.414 68.2139 217.853 66.8952 230.252 67.314C248.839 67.9418 250.616 76.4722 250.616 91.8302C250.616 104.134 250.616 116.438 250.616 128.742C250.616 137.028 250.499 147.392 259.117 152.432C268.049 157.656 282.3 150.921 289.761 146.923C304.638 138.95 308.889 120.248 313.881 106.338C318.156 94.4255 304.868 54 325.546 54C355.074 54 381.804 70.0238 382.287 99.1759C382.364 103.824 373.685 149.861 381.496 149.861C389.459 149.861 403.721 150.367 408.087 143.158C414.2 133.063 418.996 122.505 419.554 110.837C420.148 98.4263 417.725 91.7925 413.326 80.8117C409.779 71.9558 413.368 68.7193 422.421 68.875C439.669 69.1717 454.249 79.972 467.3 89.4429C476.885 96.3985 477.846 106.552 478.47 116.989C478.986 125.625 481.52 140.58 490.826 144.903C503.236 150.666 514.872 142.527 526.018 138.292C542.112 132.176 542.549 110.194 562 110.194" stroke="#00FFE0" stroke-width="108" stroke-linecap="round"/>
</svg>
