<svg width="45" height="45" viewBox="0 0 45 45" fill="none" xmlns="http://www.w3.org/2000/svg">
<path fill-rule="evenodd" clip-rule="evenodd" d="M10 0C7.34784 0 4.8043 1.05357 2.92893 2.92893C1.05357 4.8043 0 7.34784 0 10V35C0 37.6522 1.05357 40.1957 2.92893 42.0711C4.8043 43.9464 7.34784 45 10 45H35C37.6522 45 40.1957 43.9464 42.0711 42.0711C43.9464 40.1957 45 37.6522 45 35V10C45 7.34784 43.9464 4.8043 42.0711 2.92893C40.1957 1.05357 37.6522 0 35 0H10ZM35.83 17.6375C36.198 17.0858 36.3318 16.4106 36.2019 15.7603C36.072 15.11 35.6892 14.538 35.1375 14.17C34.5858 13.802 33.9106 13.6682 33.2603 13.7981C32.61 13.928 32.038 14.3108 31.67 14.8625C30.785 16.0375 29.8575 17.1625 28.7725 18.1625C27.515 19.3225 26.2425 20.1925 25.0025 20.7075L24.9825 15.9575C24.9109 15.3494 24.6185 14.7887 24.1609 14.3818C23.7033 13.9749 23.1123 13.7501 22.5 13.75C21.145 13.8275 20 14.8275 20 16.25V27.1825C15.13 25.8325 12.5 21.1075 12.5 16.25C12.5 15.587 12.2366 14.9511 11.7678 14.4822C11.2989 14.0134 10.663 13.75 10 13.75C9.33696 13.75 8.70107 14.0134 8.23223 14.4822C7.76339 14.9511 7.5 15.587 7.5 16.25C7.5 25.33 13.775 32.5 22.5 32.5C23.163 32.5 23.7989 32.2366 24.2678 31.7678C24.7366 31.2989 25 30.663 25 30V26.0925C28.33 26.3575 31.56 28.71 32.765 31.1175C32.9054 31.4214 33.1054 31.6941 33.3532 31.9193C33.601 32.1444 33.8915 32.3175 34.2074 32.4283C34.5234 32.5391 34.8584 32.5853 35.1925 32.5641C35.5266 32.543 35.8531 32.4549 36.1526 32.3052C36.452 32.1554 36.7184 31.9471 36.9358 31.6925C37.1532 31.4378 37.3172 31.1422 37.4182 30.8229C37.5191 30.5037 37.555 30.1674 37.5235 29.8341C37.492 29.5008 37.3939 29.1772 37.235 28.8825C36.04 26.49 33.81 24.2525 31.065 22.7925C31.435 22.49 31.8025 22.17 32.165 21.8375C33.5424 20.5814 34.772 19.1723 35.83 17.6375Z" fill="#FF8A00"/>
</svg>
